<svg id="Layer_2" height="512" viewBox="0 0 128 128" width="512" xmlns="http://www.w3.org/2000/svg" data-name="Layer 2"><path d="m40.5 1.75h47a12 12 0 0 1 12 12 0 0 0 0 1 0 0h-71a0 0 0 0 1 0 0 12 12 0 0 1 12-12z" fill="#fff176"/><path d="m36.5 4.75h47a11.994 11.994 0 0 1 11.607 9h4.393a12 12 0 0 0 -12-12h-47a11.961 11.961 0 0 0 -9.033 4.117 11.935 11.935 0 0 1 5.033-1.117z" fill="#fbc02d"/><path d="m99.5 31.39v-8.64h-71v8.64a67.416 67.416 0 0 0 19.69 47.61c.59.6 1.19 1.18 1.81 1.75l-.79 1.75-3.3 7.31a66.238 66.238 0 0 0 -4.02 11.67h-.01l-.39 1.74c-.13.58-.24 1.17-.36 1.76a67.167 67.167 0 0 0 -1.13 12.27h48a67.167 67.167 0 0 0 -1.13-12.27l-.07-.33-.6-2.81-.08-.36h-.01a66.238 66.238 0 0 0 -4.02-11.67l-3.3-7.31-.79-1.75c.62-.57 1.22-1.15 1.81-1.75a67.43 67.43 0 0 0 19.69-47.61z" fill="#ffa726"/><path d="m99.5 31.39v-8.64h-4v8.64a67.43 67.43 0 0 1 -19.69 47.61c-.59.6-1.19 1.18-1.81 1.75l.79 1.75 3.3 7.31a66.238 66.238 0 0 1 4.02 11.67h.01l.08.36.6 2.81.07.33a67.167 67.167 0 0 1 1.13 12.27h4a67.167 67.167 0 0 0 -1.13-12.27l-.07-.33-.6-2.81-.08-.36h-.01a66.238 66.238 0 0 0 -4.02-11.67l-3.3-7.31-.79-1.75c.62-.57 1.22-1.15 1.81-1.75a67.43 67.43 0 0 0 19.69-47.61z" fill="#fb8c00"/><rect fill="#e64a19" height="9" rx="1.734" width="60.167" x="34.167" y="117.25"/><path d="m92.6 117.25h-56.7a1.734 1.734 0 0 0 -1.734 1.734v1.266h54.434a1.734 1.734 0 0 1 1.734 1.734v4.266h2.266a1.735 1.735 0 0 0 1.734-1.734v-5.531a1.734 1.734 0 0 0 -1.734-1.735z" fill="#bf360c"/><path d="m99.5 13.75v9" fill="none"/><path d="m89.75 13.75v17.64a69.418 69.418 0 0 1 -19.03 47.61h9.09c-.59.6-1.19 1.18-1.81 1.75l.79 1.75h-29.58l.79-1.75c-.62-.57-1.22-1.15-1.81-1.75h9.09a69.418 69.418 0 0 1 -19.03-47.61v-17.64h3.5v17.64a65.908 65.908 0 0 0 20.46 47.61h.04v-65.25h3.5v65.25h.04a65.908 65.908 0 0 0 20.46-47.61v-17.64z" fill="#424242"/><path d="m86.87 104.98a1.842 1.842 0 0 1 -.41.03 10.53 10.53 0 0 1 -6.29-2.3 7.145 7.145 0 0 0 -4.74-1.69 7.061 7.061 0 0 0 -4.71 1.69 10.944 10.944 0 0 1 -13.45 0 7.45 7.45 0 0 0 -9.45 0 10.582 10.582 0 0 1 -6.27 2.3 1.487 1.487 0 0 1 -.42-.03c.12-.59.23-1.18.36-1.76l.39-1.74h.01a7.257 7.257 0 0 0 3.93-1.65 10.926 10.926 0 0 1 13.45.01 7.47 7.47 0 0 0 9.44 0 10.94 10.94 0 0 1 13.46-.01 7.257 7.257 0 0 0 3.94 1.65h.01l.08.36.6 2.81z" fill="#424242"/><rect fill="#e64a19" height="9" rx="4.37" width="84.66" x="21.92" y="13.75"/><g fill="#bf360c"><path d="m50.25 13.75h3.5v9h-3.5z"/><path d="m38.25 13.75h3.5v9h-3.5z"/><path d="m74.25 13.75h3.5v9h-3.5z"/><path d="m26.75 13.75h3.5v9h-3.5z"/><path d="m97.75 13.75h3.5v9h-3.5z"/><path d="m86.25 13.75h3.5v9h-3.5z"/><path d="m62.25 13.75h3.5v9h-3.5z"/></g></svg>