<?xml version="1.0"?>
<svg xmlns="http://www.w3.org/2000/svg" height="512px" viewBox="0 0 64 64" width="512px" class=""><g><g id="Elearning-book-screen-online-education"><path d="m61 35h-58v-30a2 2 0 0 1 2-2h54a2 2 0 0 1 2 2z" fill="#e9e9ea" data-original="#E9E9EA" class=""/><path d="m6 6h52v26h-52z" fill="#2488ff" data-original="#2488FF" class="" style="fill:#FFB200" data-old_color="#2488ff"/><path d="m61 35v2a2.006 2.006 0 0 1 -2 2h-54a2.006 2.006 0 0 1 -2-2v-2z" fill="#acabb1" data-original="#ACABB1" class="" data-old_color="#acabb1" style="fill:#FFFFFF"/><path d="m49.95 55.88-.12.12-.59.59-4.24 1.41 1.41-4.24.71-.71z" fill="#3e3d42" data-original="#3E3D42" class="active-path" style="fill:#3E3D42"/><path d="m59.85 43.15a2 2 0 0 1 0 2.83l-1.51 1.51-2.83-2.83 1.51-1.51a1.992 1.992 0 0 1 2.83 0z" fill="#fff" data-original="#FFF" class=""/><path d="m46.797 48.269h11.865v4.002h-11.865z" fill="#64c37d" transform="matrix(.707 -.707 .707 .707 -20.102 52.009)" data-original="#64C37D" class="" style="fill:#FFB200" data-old_color="#64c37d"/><path d="m3 35h38v26h-38z" fill="#d80027" data-original="#D80027" class="" style="fill:#FF5400" data-old_color="#d80027"/><path d="m22 43v15h-16v-20h12a4 4 0 0 1 4 4z" fill="#fff" data-original="#FFF" class=""/><path d="m22 58v-16a4 4 0 0 1 4-4h12v20z" fill="#e9e9ea" data-original="#E9E9EA" class=""/><path d="m33.1 20.8a1.5 1.5 0 0 1 .38.19 1.9 1.9 0 0 1 .85 1.59 1.871 1.871 0 0 1 -.27.99l-1.33 2.22-3.31-2.47 1.49-1.92a1.889 1.889 0 0 1 2.19-.6z" fill="#f5e0cd" data-original="#F5E0CD" class=""/><path d="m20.29 22.44.71 3.56h-6l.71-3.56a4.962 4.962 0 0 0 4.58 0z" fill="#f0d0b4" data-original="#F0D0B4"/><path d="m21 26-3 4-3-4z" fill="#fff" data-original="#FFF" class=""/><path d="m18 30 3-4h3l2.14 1.53 3.28-4.21 3.31 2.47-3.73 6.21h-20v-2a4 4 0 0 1 4-4h2z" fill="#3e3d42" data-original="#3E3D42" class="active-path" style="fill:#3E3D42"/><path d="m23 14h-13a5 5 0 0 1 5-5 4.949 4.949 0 0 1 3.1 1.11 3.824 3.824 0 0 1 .9-.11 4 4 0 0 1 4 4z" fill="#6a563d" data-original="#6A563D" class="" data-old_color="#6a563d" style="fill:#FFFFFF"/><path d="m13 14h10a0 0 0 0 1 0 0v4a5 5 0 0 1 -5 5 5 5 0 0 1 -5-5v-4a0 0 0 0 1 0 0z" fill="#f5e0cd" data-original="#F5E0CD" class=""/><path d="m25 41h10v2h-10z" data-original="#000000" class="" style="fill:#000000"/><path d="m25 45h10v2h-10z" data-original="#000000" class="" style="fill:#000000"/><path d="m25 49h10v2h-10z" data-original="#000000" class="" style="fill:#000000"/><path d="m25 53h10v2h-10z" data-original="#000000" class="" style="fill:#000000"/><path d="m9 41h10v2h-10z" data-original="#000000" class="" style="fill:#000000"/><path d="m9 45h10v2h-10z" data-original="#000000" class="" style="fill:#000000"/><path d="m9 49h10v2h-10z" data-original="#000000" class="" style="fill:#000000"/><path d="m9 53h10v2h-10z" data-original="#000000" class="" style="fill:#000000"/><path d="m59 2h-54a3.009 3.009 0 0 0 -3 3v56a1 1 0 0 0 1 1h38a1 1 0 0 0 1-1v-21h17a3.009 3.009 0 0 0 3-3v-32a3.009 3.009 0 0 0 -3-3zm-19 58h-36v-24h36zm20-23a1 1 0 0 1 -1 1h-17v-2h18zm0-3h-56v-29a1 1 0 0 1 1-1h54a1 1 0 0 1 1 1z" data-original="#000000" class="" style="fill:#000000"/><path d="m38 37h-12a4.994 4.994 0 0 0 -4 2.03 4.994 4.994 0 0 0 -4-2.03h-12a1 1 0 0 0 -1 1v20a1 1 0 0 0 1 1h32a1 1 0 0 0 1-1v-20a1 1 0 0 0 -1-1zm-17 20h-14v-18h11a3.009 3.009 0 0 1 3 3zm16 0h-14v-15a3.009 3.009 0 0 1 3-3h11z" data-original="#000000" class="" style="fill:#000000"/><path d="m58 5h-52a1 1 0 0 0 -1 1v26a1 1 0 0 0 1 1h52a1 1 0 0 0 1-1v-26a1 1 0 0 0 -1-1zm-48 26v-1a3.009 3.009 0 0 1 3-3h1.5l2.7 3.6a1 1 0 0 0 1.6 0l2.7-3.6h2.18l1.03.74-.5.65 1.58 1.22 3.82-4.91 1.79 1.35-2.97 4.95zm4-16h8v3a4 4 0 0 1 -8 0zm-2.87-2a3.966 3.966 0 0 1 6.35-2.11 1 1 0 0 0 .85.19 3.3 3.3 0 0 1 .67-.08 3.014 3.014 0 0 1 2.83 2zm5.09 12 .24-1.21a5.752 5.752 0 0 0 3.08 0l.24 1.21zm2.78 2-1 1.33-1-1.33zm11.83-3.87.87-1.11a.911.911 0 0 1 1.5 1.03l-.76 1.28zm26.17 7.87h-26.23l4.15-6.92a2.9 2.9 0 0 0 -.53-3.63l2.5-5-1.78-.9-2.57 5.13a2.88 2.88 0 0 0 -2.42 1.11l-4.18 5.37-1.36-.97a1 1 0 0 0 -.58-.19h-2.18l-.41-2.07a6 6 0 0 0 2.59-4.93v-4a5 5 0 0 0 -5-5 4.865 4.865 0 0 0 -.65.05 5.855 5.855 0 0 0 -3.35-1.05 6 6 0 0 0 -6 6 1 1 0 0 0 1 1h2v3a6 6 0 0 0 2.59 4.93l-.41 2.07h-1.18a5 5 0 0 0 -5 5v1h-1v-24h50z" data-original="#000000" class="" style="fill:#000000"/><path d="m38 9h8v2h-8z" data-original="#000000" class="" style="fill:#000000"/><path d="m48 9h6v2h-6z" data-original="#000000" class="" style="fill:#000000"/><path d="m38 13h4v2h-4z" data-original="#000000" class="" style="fill:#000000"/><path d="m44 13h10v2h-10z" data-original="#000000" class="" style="fill:#000000"/><path d="m38 17h6v2h-6z" data-original="#000000" class="" style="fill:#000000"/><path d="m46 17h8v2h-8z" data-original="#000000" class="" style="fill:#000000"/><path d="m38 21h16v2h-16z" data-original="#000000" class="" style="fill:#000000"/><path d="m38 25h16v2h-16z" data-original="#000000" class="" style="fill:#000000"/><path d="m56.313 42.444-10.606 10.606a1.011 1.011 0 0 0 -.241.391l-1.414 4.243a1 1 0 0 0 .948 1.316 1.014 1.014 0 0 0 .316-.051l4.243-1.414a.994.994 0 0 0 .389-.242l10.609-10.607a3 3 0 1 0 -4.244-4.242zm-7.778 10.606 6.974-6.973 1.414 1.414-6.973 6.973zm-1.33 1.5 1.247 1.25-1.871.624zm11.938-9.276-.806.8-1.414-1.414.8-.8a1 1 0 1 1 1.415 1.414z" data-original="#000000" class="" style="fill:#000000"/></g></g> </svg>
